<svg width="22" height="30" viewBox="0 0 22 30" fill="none" xmlns="http://www.w3.org/2000/svg">
<path d="M1 6.13403C1 4.33712 1 3.43866 1.36333 2.75199C1.68291 2.14825 2.19282 1.65739 2.82 1.34976C3.53333 1 4.46667 1 6.33333 1H15.6667C17.5333 1 18.4667 1 19.18 1.34976C19.8072 1.65739 20.3171 2.14825 20.6367 2.75199C21 3.43866 21 4.33712 21 6.13403V27.4803C21 28.2601 21 28.6499 20.8317 28.8633C20.7589 28.9561 20.6661 29.0326 20.5596 29.0874C20.4531 29.1423 20.3356 29.1742 20.215 29.181C19.9367 29.197 19.6 28.9804 18.9267 28.5489L11 23.4614L3.07333 28.5473C2.4 28.9804 2.06333 29.197 1.78333 29.181C1.66306 29.174 1.54579 29.142 1.43962 29.0871C1.33345 29.0323 1.24089 28.9559 1.16833 28.8633C1 28.6499 1 28.2601 1 27.4803V6.13403Z" stroke="#4A5568" stroke-linecap="round" stroke-linejoin="round"/>
</svg>
