<svg width="20" height="29" viewBox="0 0 20 29" fill="none" xmlns="http://www.w3.org/2000/svg">
<path d="M0 5.13403C0 3.33712 -8.9407e-08 2.43866 0.363333 1.75199C0.682906 1.14825 1.19282 0.657386 1.82 0.349755C2.53333 -1.19209e-07 3.46667 0 5.33333 0H14.6667C16.5333 0 17.4667 -1.19209e-07 18.18 0.349755C18.8072 0.657386 19.3171 1.14825 19.6367 1.75199C20 2.43866 20 3.33712 20 5.13403V26.4803C20 27.2601 20 27.6499 19.8317 27.8633C19.7589 27.9561 19.6661 28.0326 19.5596 28.0874C19.4531 28.1423 19.3356 28.1742 19.215 28.181C18.9367 28.197 18.6 27.9804 17.9267 27.5489L10 22.4614L2.07333 27.5473C1.4 27.9804 1.06333 28.197 0.783333 28.181C0.66306 28.174 0.545794 28.142 0.439621 28.0871C0.333447 28.0323 0.240891 27.9559 0.168333 27.8633C-2.83122e-07 27.6499 0 27.2601 0 26.4803V5.13403Z" fill="#0046B1"/>
</svg>
